<?xml version="1.0" encoding="utf-8"?>
<!-- Generator: Adobe Illustrator 18.0.0, SVG Export Plug-In . SVG Version: 6.00 Build 0)  -->
<!DOCTYPE svg PUBLIC "-//W3C//DTD SVG 1.1//EN" "http://www.w3.org/Graphics/SVG/1.1/DTD/svg11.dtd">
<svg version="1.1" xmlns="http://www.w3.org/2000/svg" xmlns:xlink="http://www.w3.org/1999/xlink" x="0px" y="0px"
	 viewBox="0 0 398 316" enable-background="new 0 0 398 316" xml:space="preserve">
<g id="BACKGROUND" display="none">
	<rect x="-293" y="-118" display="inline" fill="#7B99F4" width="750" height="500"/>
</g>
<g id="OBJECTS">
	<circle fill="#CFE5FF" cx="338.7" cy="228.2" r="4.7"/>
	<path fill="#EAF4FF" d="M390.8,101.6c-0.7-4.3-1.7-8.6-2.9-12.7c-8.1-27.2-25.8-50.3-51.3-62.7C308.7,12.7,276.9,6.5,246,6.5
		c-104.6,0-153.9,45-128,84c55,83-75.3,33-104,82c-19.2,32.9-0.9,68.7,24,92.4c27.4,26.1,62.9,40.3,100.2,44.4
		c26.4,2.9,54-0.2,77.3-13.6c20.4-11.7,32.8-32.2,51.4-46.4c18.3-14,39.1-24.1,61.6-29.4C378.6,208.1,398.8,148.8,390.8,101.6z"/>
	<g opacity="0.23">
		<linearGradient id="SVGID_1_" gradientUnits="userSpaceOnUse" x1="67.1045" y1="198.9781" x2="116.9294" y2="198.9781">
			<stop  offset="0" style="stop-color:#BB7AD5"/>
			<stop  offset="1" style="stop-color:#FBFBFB"/>
		</linearGradient>
		<path fill="url(#SVGID_1_)" d="M116.9,175.4c0-0.4,0-0.9,0-1.3l-49.8,49.8c0.4,0,0.9,0,1.3,0L116.9,175.4z"/>
		<linearGradient id="SVGID_2_" gradientUnits="userSpaceOnUse" x1="61.0394" y1="195.8425" x2="116.7233" y2="195.8425">
			<stop  offset="0" style="stop-color:#BB7AD5"/>
			<stop  offset="1" style="stop-color:#FBFBFB"/>
		</linearGradient>
		<path fill="url(#SVGID_2_)" d="M116.7,169.2c0-0.4-0.1-0.8-0.1-1.2L61,223.6c0.4,0,0.8,0.1,1.2,0.1L116.7,169.2z"/>
		<linearGradient id="SVGID_3_" gradientUnits="userSpaceOnUse" x1="30.9903" y1="173.735" x2="102.5575" y2="173.735">
			<stop  offset="0" style="stop-color:#BB7AD5"/>
			<stop  offset="1" style="stop-color:#FBFBFB"/>
		</linearGradient>
		<path fill="url(#SVGID_3_)" d="M31,208.9c0.1,0.1,0.2,0.2,0.3,0.3c0.1,0.1,0.2,0.2,0.3,0.3l70.9-70.9c-0.1-0.1-0.2-0.2-0.3-0.3
			c-0.1-0.1-0.2-0.2-0.3-0.3L31,208.9z"/>
		<linearGradient id="SVGID_4_" gradientUnits="userSpaceOnUse" x1="74.0138" y1="202.1734" x2="116.4107" y2="202.1734">
			<stop  offset="0" style="stop-color:#BB7AD5"/>
			<stop  offset="1" style="stop-color:#FBFBFB"/>
		</linearGradient>
		<path fill="url(#SVGID_4_)" d="M116.2,182.5c0.1-0.5,0.2-1,0.2-1.5L74,223.4c0.5-0.1,1-0.2,1.5-0.2L116.2,182.5z"/>
		<linearGradient id="SVGID_5_" gradientUnits="userSpaceOnUse" x1="55.5808" y1="192.7012" x2="115.8993" y2="192.7012">
			<stop  offset="0" style="stop-color:#BB7AD5"/>
			<stop  offset="1" style="stop-color:#FBFBFB"/>
		</linearGradient>
		<path fill="url(#SVGID_5_)" d="M115.9,163.6c-0.1-0.4-0.1-0.7-0.2-1.1l-60.1,60.1c0.3,0.1,0.7,0.2,1.1,0.2L115.9,163.6z"/>
		<linearGradient id="SVGID_6_" gradientUnits="userSpaceOnUse" x1="94.8805" y1="208.5641" x2="108.3254" y2="208.5641">
			<stop  offset="0" style="stop-color:#BB7AD5"/>
			<stop  offset="1" style="stop-color:#FBFBFB"/>
		</linearGradient>
		<path fill="url(#SVGID_6_)" d="M108.3,201.8l-13.4,13.4c2.6-1.8,5.1-3.8,7.4-6.1C104.5,206.9,106.6,204.4,108.3,201.8z"/>
		<linearGradient id="SVGID_7_" gradientUnits="userSpaceOnUse" x1="50.5997" y1="189.5506" x2="114.5792" y2="189.5506">
			<stop  offset="0" style="stop-color:#BB7AD5"/>
			<stop  offset="1" style="stop-color:#FBFBFB"/>
		</linearGradient>
		<path fill="url(#SVGID_7_)" d="M114.6,158.5c-0.1-0.3-0.2-0.6-0.3-1l-63.7,63.7c0.3,0.1,0.6,0.2,1,0.3L114.6,158.5z"/>
		<linearGradient id="SVGID_8_" gradientUnits="userSpaceOnUse" x1="34.2981" y1="176.902" x2="105.5837" y2="176.902">
			<stop  offset="0" style="stop-color:#BB7AD5"/>
			<stop  offset="1" style="stop-color:#FBFBFB"/>
		</linearGradient>
		<path fill="url(#SVGID_8_)" d="M34.3,212c0.2,0.2,0.5,0.4,0.7,0.6l70.6-70.6c-0.2-0.2-0.4-0.5-0.6-0.7L34.3,212z"/>
		<linearGradient id="SVGID_9_" gradientUnits="userSpaceOnUse" x1="37.8965" y1="180.0672" x2="108.3155" y2="180.0672">
			<stop  offset="0" style="stop-color:#BB7AD5"/>
			<stop  offset="1" style="stop-color:#FBFBFB"/>
		</linearGradient>
		<path fill="url(#SVGID_9_)" d="M108.3,145.6c-0.2-0.3-0.3-0.5-0.5-0.8l-69.9,69.9c0.3,0.2,0.5,0.4,0.8,0.5L108.3,145.6z"/>
		<linearGradient id="SVGID_10_" gradientUnits="userSpaceOnUse" x1="41.7978" y1="183.2319" x2="110.7438" y2="183.2319">
			<stop  offset="0" style="stop-color:#BB7AD5"/>
			<stop  offset="1" style="stop-color:#FBFBFB"/>
		</linearGradient>
		<path fill="url(#SVGID_10_)" d="M110.7,149.6c-0.2-0.3-0.3-0.5-0.5-0.8l-68.5,68.5c0.3,0.2,0.5,0.3,0.8,0.5L110.7,149.6z"/>
		<linearGradient id="SVGID_11_" gradientUnits="userSpaceOnUse" x1="46.0211" y1="186.3936" x2="112.8436" y2="186.3936">
			<stop  offset="0" style="stop-color:#BB7AD5"/>
			<stop  offset="1" style="stop-color:#FBFBFB"/>
		</linearGradient>
		<path fill="url(#SVGID_11_)" d="M112.8,153.9c-0.1-0.3-0.3-0.6-0.4-0.9L46,219.4c0.3,0.1,0.6,0.3,0.9,0.4L112.8,153.9z"/>
		<linearGradient id="SVGID_12_" gradientUnits="userSpaceOnUse" x1="82.3529" y1="205.3687" x2="114.4624" y2="205.3687">
			<stop  offset="0" style="stop-color:#BB7AD5"/>
			<stop  offset="1" style="stop-color:#FBFBFB"/>
		</linearGradient>
		<path fill="url(#SVGID_12_)" d="M113.8,191.3c0.2-0.7,0.5-1.3,0.7-2l-32.1,32.1c0.7-0.2,1.3-0.4,2-0.7L113.8,191.3z"/>
		<linearGradient id="SVGID_13_" gradientUnits="userSpaceOnUse" x1="20.7042" y1="161.0766" x2="87.5267" y2="161.0766">
			<stop  offset="0" style="stop-color:#BB7AD5"/>
			<stop  offset="1" style="stop-color:#FBFBFB"/>
		</linearGradient>
		<path fill="url(#SVGID_13_)" d="M87.5,128.1c-0.3-0.1-0.6-0.3-0.9-0.4l-65.9,65.9c0.1,0.3,0.3,0.6,0.4,0.9L87.5,128.1z"/>
		<linearGradient id="SVGID_14_" gradientUnits="userSpaceOnUse" x1="22.804" y1="164.2381" x2="91.7501" y2="164.2381">
			<stop  offset="0" style="stop-color:#BB7AD5"/>
			<stop  offset="1" style="stop-color:#FBFBFB"/>
		</linearGradient>
		<path fill="url(#SVGID_14_)" d="M91.8,130.2c-0.3-0.2-0.5-0.3-0.8-0.5l-68.1,68.1c0.2,0.3,0.3,0.5,0.5,0.8L91.8,130.2z"/>
		<linearGradient id="SVGID_15_" gradientUnits="userSpaceOnUse" x1="25.2323" y1="167.4029" x2="95.6513" y2="167.4029">
			<stop  offset="0" style="stop-color:#BB7AD5"/>
			<stop  offset="1" style="stop-color:#FBFBFB"/>
		</linearGradient>
		<path fill="url(#SVGID_15_)" d="M95.7,132.7c-0.3-0.2-0.5-0.4-0.8-0.5l-69.7,69.7c0.2,0.3,0.3,0.5,0.5,0.8L95.7,132.7z"/>
		<linearGradient id="SVGID_16_" gradientUnits="userSpaceOnUse" x1="27.9641" y1="170.5681" x2="99.2497" y2="170.5681">
			<stop  offset="0" style="stop-color:#BB7AD5"/>
			<stop  offset="1" style="stop-color:#FBFBFB"/>
		</linearGradient>
		<path fill="url(#SVGID_16_)" d="M99.2,135.5c-0.2-0.2-0.5-0.4-0.7-0.6L28,205.5c0.2,0.2,0.4,0.5,0.6,0.7L99.2,135.5z"/>
		<linearGradient id="SVGID_17_" gradientUnits="userSpaceOnUse" x1="17.1371" y1="145.2966" x2="59.534" y2="145.2966">
			<stop  offset="0" style="stop-color:#BB7AD5"/>
			<stop  offset="1" style="stop-color:#FBFBFB"/>
		</linearGradient>
		<path fill="url(#SVGID_17_)" d="M59.5,124.1c-0.5,0.1-1,0.2-1.5,0.2L17.4,165c-0.1,0.5-0.2,1-0.2,1.5L59.5,124.1z"/>
		<linearGradient id="SVGID_18_" gradientUnits="userSpaceOnUse" x1="25.2223" y1="138.9059" x2="38.6674" y2="138.9059">
			<stop  offset="0" style="stop-color:#BB7AD5"/>
			<stop  offset="1" style="stop-color:#FBFBFB"/>
		</linearGradient>
		<path fill="url(#SVGID_18_)" d="M38.7,132.2c-2.6,1.8-5.1,3.8-7.4,6.1c-2.3,2.3-4.3,4.8-6.1,7.4L38.7,132.2z"/>
		<linearGradient id="SVGID_19_" gradientUnits="userSpaceOnUse" x1="18.9686" y1="157.9195" x2="82.9481" y2="157.9195">
			<stop  offset="0" style="stop-color:#BB7AD5"/>
			<stop  offset="1" style="stop-color:#FBFBFB"/>
		</linearGradient>
		<path fill="url(#SVGID_19_)" d="M82.9,126.2c-0.3-0.1-0.6-0.2-1-0.3l-63,63c0.1,0.3,0.2,0.6,0.3,1L82.9,126.2z"/>
		<linearGradient id="SVGID_20_" gradientUnits="userSpaceOnUse" x1="16.6184" y1="148.492" x2="66.4433" y2="148.492">
			<stop  offset="0" style="stop-color:#BB7AD5"/>
			<stop  offset="1" style="stop-color:#FBFBFB"/>
		</linearGradient>
		<path fill="url(#SVGID_20_)" d="M66.4,123.6c-0.4,0-0.9,0-1.3,0l-48.5,48.5c0,0.4,0,0.9,0,1.3L66.4,123.6z"/>
		<linearGradient id="SVGID_21_" gradientUnits="userSpaceOnUse" x1="19.0854" y1="142.1013" x2="51.1949" y2="142.1013">
			<stop  offset="0" style="stop-color:#BB7AD5"/>
			<stop  offset="1" style="stop-color:#FBFBFB"/>
		</linearGradient>
		<path fill="url(#SVGID_21_)" d="M19.8,156.2c-0.2,0.7-0.5,1.3-0.7,2L51.2,126c-0.7,0.2-1.3,0.4-2,0.7L19.8,156.2z"/>
		<linearGradient id="SVGID_22_" gradientUnits="userSpaceOnUse" x1="17.6485" y1="154.769" x2="77.967" y2="154.769">
			<stop  offset="0" style="stop-color:#BB7AD5"/>
			<stop  offset="1" style="stop-color:#FBFBFB"/>
		</linearGradient>
		<path fill="url(#SVGID_22_)" d="M78,124.8c-0.3-0.1-0.7-0.2-1.1-0.2l-59.3,59.3c0.1,0.4,0.1,0.7,0.2,1.1L78,124.8z"/>
		<linearGradient id="SVGID_23_" gradientUnits="userSpaceOnUse" x1="16.8245" y1="151.6277" x2="72.5085" y2="151.6277">
			<stop  offset="0" style="stop-color:#BB7AD5"/>
			<stop  offset="1" style="stop-color:#FBFBFB"/>
		</linearGradient>
		<path fill="url(#SVGID_23_)" d="M72.5,123.9c-0.4,0-0.8-0.1-1.2-0.1l-54.5,54.5c0,0.4,0.1,0.8,0.1,1.2L72.5,123.9z"/>
	</g>
	<circle fill="#CFE5FF" cx="61.5" cy="123" r="11.5"/>
	<circle fill="#CFE5FF" cx="26" cy="285.5" r="6"/>
	<g>
		<path fill="#B8E3C2" d="M116.5,145.8c-2.1-0.5-5.3-5.7-7.9-6c-2.7-0.2-5.9,2.9-8.6,0.9c-2.7-2-3-10.5-6.1-12.2
			c-3.1-1.7-5.4,0.2-6.6-1.8c-1.2-2,0.4-8.8-2.4-11.2c-2.8-2.4-5.1-1.6-5.6-3.7c-0.6-2.1,1.1-5.4-1.1-8.6c-2.2-3.1-3.1-7.2,0.3-5.3
			c3.4,1.9,6.4,4.2,9.7,3.5c3.4-0.8,2.8,5,5.2,6.4c2.4,1.4,6-0.9,7.9,0.3c1.9,1.2,2.1,7.8,3.7,8.4c1.6,0.6,8.1-3.9,11.2-2.6
			c3,1.3-0.7,9.5,2.6,10.7c3.3,1.2,7.2,2.8,7.2,2.8L116.5,145.8z"/>
		<path fill="#9ECDBB" d="M83.3,105.8c0,0,3.7,12.1,36.5,33.1l2.1-3.4C121.9,135.5,95.3,124,83.3,105.8z"/>
	</g>
	<path fill="none" stroke="#D8171C" stroke-width="2" stroke-miterlimit="10" d="M80.8,168.1c-7.3,4.9-11.5,29.1,2.7,29.6
		c9.8,0.3,13.6-8.5,10-11.2c-9.2-6.9-20,17.3-9.2,22.2c5.1,2.3,10.2-1.4,15.8-5.8c8.5-6.9,17.9-15.6,29.5-7.6"/>
	<ellipse fill="#E5EBF4" cx="244.3" cy="243.4" rx="14.3" ry="3.5"/>
	<ellipse fill="#E5EBF4" cx="162.9" cy="257.1" rx="14.3" ry="3.5"/>
	<path fill="#E5EBF4" d="M286.9,235.9H124.5c-5.7,0-11.3-0.8-16.7-2.5l-25.2-7.7h248.8l-29.1,8.1
		C297.2,235.2,292.1,235.9,286.9,235.9z"/>
	<g>
		<path fill="#D85C1C" d="M319.1,88.9c-3.2-0.3-7.9-0.2-14.5,1c-3.7,0.6-6.9,2.8-8.8,6c-3.4,5.6-8.7,14.6-9.8,17.7
			c0,0-9.4-1.5-14.7-4.7l-2.3,4.7c0,0,5.4,3.7,21.2,8.9c0,0,4.7-7.1,7.2-14c0,0-0.5,3.8,1.3,10.6c1.4,5.4-1.9,26.3-1.9,26.3
			l34.5-1.2l-2.8-20.8l4.2-5.4c1.2-1.5,1.7-3.5,1.4-5.4c-0.6-4-2.2-11.1-5.9-17.8C326.4,91.4,323,89.2,319.1,88.9z"/>
		<path fill="#B14800" d="M325.3,114.4l-1.3-8.8c0,0-1.7,11.6-2.4,13L325.3,114.4z"/>
		<path fill="#E7D1AD" d="M312.3,125.7c-1.8,0.6-6.3,2.1-5.9,3c0.2,0.5,3.4-0.7,3.8-0.3c0.3,0.3-0.9,2-2.9,3.1
			c-1.6,0.8-2.7,0.7-2.8,1.4c-0.1,1,4.6,0.9,5.8,0.7c0.7-0.1,2.1-0.4,3.2-1.3c1.2-1,1.5-1.6,2.1-2.2c1.4-1.3,2.9-2.2,2.9-2.2
			l-2.3-3.8C316.2,124,313.3,125.3,312.3,125.7z"/>
		<path fill="#E0BD82" d="M307.5,83l0.7,8.4c0,0,4.5,3.9,8.5-0.5l-2.2-10.2L307.5,83z"/>
		<path fill="#E7CB9E" d="M319.8,60.5c2.1,2.1,3.8,5.2,3.8,9.6c0,6.5-7.7,15.6-14.7,15.6c-6.2,0-11.2-6.4-11.2-14.2
			c0-6,3-11.1,7.1-13.2C310.7,55.3,317,57.7,319.8,60.5z"/>
		<g>
			<path fill="#E0B695" d="M305.1,74.3c0,0-0.1,0.3-0.2,0.6c-0.1,0.4-0.2,0.9-0.3,1.3c0,0.2,0,0.5,0,0.6c0.1,0.2,0.1,0.3,0.3,0.4
				c0.1,0,0.1,0.1,0.2,0.1c0.1,0,0.1,0.1,0.2,0.1c0.1,0,0.2,0.1,0.2,0.1s-0.1,0-0.2,0c-0.1,0-0.3,0-0.5-0.1c-0.1,0-0.2-0.1-0.3-0.2
				c-0.1-0.1-0.2-0.2-0.3-0.3c-0.1-0.1-0.1-0.3-0.1-0.4c0-0.1,0-0.3,0-0.4c0.1-0.6,0.3-1,0.5-1.4C304.9,74.4,305.1,74.3,305.1,74.3z
				"/>
		</g>
		<ellipse fill="#E0AB82" cx="300.3" cy="75.7" rx="1.6" ry="1.1"/>
		<ellipse fill="#E0AB82" cx="311.9" cy="75.7" rx="1.9" ry="1.3"/>
		<ellipse fill="#E5EBF4" cx="309.7" cy="229.3" rx="28.1" ry="4.9"/>
		<g>
			<path fill="#393939" d="M330,220.1c0,0,1.6,0.3,1.4,2.8c-0.2,2.4-0.1,5.7-0.1,5.7l-0.7,0.3c0,0-0.4-2.9-0.6-3
				c-0.2,0-1.6,3-3.2,3.6c-1.6,0.7-5.7,2-6.8,0.8c-1.3-1.3,1.6-2.5,3-3.3C324.4,226.2,330,220.1,330,220.1z"/>
			<path fill="#E7CB9E" d="M324.2,212.3c0,0,1.7,6.7,0.9,9.6c-0.8,2.9-3,5.3-3.3,5.9c-0.2,0.6,3,0.2,4.2-0.8c1.2-1,4.2-6.2,4-6.9
				c-0.2-0.7-0.7-5.4-0.5-8.9L324.2,212.3z"/>
		</g>
		<g>
			<path fill="#393939" d="M303.1,220.8c0,0,1.6,0.5,1,2.9c-0.6,2.4-0.9,5.7-0.9,5.7l-0.7,0.2c0,0,0-3-0.2-3s-1.9,2.8-3.6,3.2
				c-1.7,0.5-6,1.2-7-0.2c-1.1-1.5,1.9-2.2,3.4-2.9C296.7,226.1,303.1,220.8,303.1,220.8z"/>
			<path fill="#E7CB9E" d="M298.4,212.3c0,0,0.8,6.9-0.4,9.6c-1.2,2.7-3.7,4.9-4,5.4c-0.3,0.5,3,0.6,4.3-0.2c1.3-0.8,5-5.6,4.9-6.3
				c-0.1-0.7,0-5.4,0.7-8.8L298.4,212.3z"/>
		</g>
		<path fill="#2638A3" d="M296.9,145.4c0,0-2.9,29.2-3.3,39c-0.4,8.6,3.7,35.3,3.7,35.3l7-0.6c0,0,0.8-25.6,2.8-34.1
			c1.5-6.5,6-26,6-26s2.3,18.5,3.1,24.7c1.1,8.8,6.9,35.9,6.9,35.9l8.2-0.4c0,0-2.2-27.4-2.1-36.5c0.1-9.6,2.2-38.5,2.2-38.5
			L296.9,145.4z"/>
		<path fill="#12259A" d="M296.9,145.4c0,0-2.9,29.2-3.3,39c-0.4,8.6,3.7,35.3,3.7,35.3l7-0.6c0,0,0.8-25.6,2.8-34.1
			c1.5-6.5,6-26,6-26s-4-4.9-5.3-14L296.9,145.4z"/>
		<path fill="#424242" d="M324.7,70.8c0,0-1.5,4.8-9,0.4c-7.5-4.3-12.2-9.5-12.2-9.5s-2.4,6.3-6.3,8.8c0,0,0.2-4.4,0.9-6.7
			c0.8-2.5,3.1-7.8,11-8.1C327,55.1,324.7,70.8,324.7,70.8z"/>
		<path fill="#424242" d="M323.5,67.4c0,0,4.1-2.3,2.5-7c-1.6-4.7-7.8-7.2-11-3"/>
		<ellipse fill="#424242" cx="308.8" cy="71.3" rx="0.7" ry="1"/>
		<ellipse fill="#424242" cx="302" cy="71.7" rx="0.7" ry="1"/>
		<path fill="#E5F1FF" d="M308.8,79c0,0-3.2,1.5-5.8,0.2C303,80.6,306.3,83.2,308.8,79z"/>
		<path d="M318.5,74.8c-0.9,2.6,0.1,5.2,2.1,5.8c2,0.6,4.4-1.1,5.2-3.7c0.9-2.6-0.1-5.2-2.1-5.8C321.7,70.5,319.3,72.2,318.5,74.8z"
			/>
		<g>
			<g>
				<path fill="none" stroke="#000000" stroke-linecap="round" stroke-miterlimit="10" d="M321,78.9c0,0-3.7,5.5-11.4,4.1"/>
				<g>
					<circle cx="309.6" cy="83" r="0.8"/>
				</g>
			</g>
		</g>
		<path fill="none" stroke="#000000" stroke-linecap="round" stroke-miterlimit="10" d="M323.9,74.1c0,0,2.2-19.8-13.5-19.9
			c-3.6,0-10,1.3-11.9,7.6"/>
	</g>
	<path fill="#D49500" d="M293.7,110.2L293.7,110.2l-75.8-42c-7.9-4.3-17.4-4.3-25.3,0l-75.9,42l0,0c-3.3,1.8-5.6,5.4-5.6,9.4v105.6
		c0,5.9,4.8,10.8,10.8,10.8h166.7c5.9,0,10.8-4.8,10.8-10.8V119.7C299.4,115.6,297.1,112,293.7,110.2z"/>
	<g>
		<path fill="#B8E3C2" d="M217.7,64.2c0.9-1.9,6.5-4.3,7.1-6.9c0.6-2.6-1.9-6.3,0.4-8.6s10.8-1.3,13-4.1c2.2-2.8,0.6-5.4,2.8-6.3
			s8.6,1.7,11.4-0.6c2.8-2.4,2.4-4.8,4.5-5c2.2-0.2,5.2,1.9,8.6,0.2c3.5-1.7,7.6-1.9,5.2,1.1c-2.4,3-5.2,5.6-5,9.1s-5.4,1.9-7.1,4.1
			c-1.7,2.2,0,6-1.5,7.8c-1.5,1.7-8,0.9-8.9,2.4c-0.9,1.5,2.6,8.6,0.9,11.4c-1.7,2.8-9.3-2.2-11,0.9c-1.7,3-3.9,6.7-3.9,6.7
			L217.7,64.2z"/>
		<path fill="#9ECDBB" d="M262.4,37.6c0,0-12.5,1.7-38.4,30.9l3,2.6C227,71.1,242.6,46.7,262.4,37.6z"/>
	</g>
	<linearGradient id="SVGID_24_" gradientUnits="userSpaceOnUse" x1="205.2452" y1="209.6021" x2="205.2452" y2="61.4753">
		<stop  offset="0" style="stop-color:#CAC7C2"/>
		<stop  offset="0.2162" style="stop-color:#DEDCD9"/>
		<stop  offset="0.4682" style="stop-color:#EEEDEC"/>
		<stop  offset="0.7268" style="stop-color:#F8F8F7"/>
		<stop  offset="1" style="stop-color:#FBFBFB"/>
	</linearGradient>
	<path fill="url(#SVGID_24_)" d="M277.8,209.6H132.6V73.8c0-6.8,5.5-12.3,12.3-12.3h120.5c6.8,0,12.3,5.5,12.3,12.3V209.6z"/>
	<g>
		<rect x="151.1" y="83.4" fill="#E1E3E6" width="108.4" height="0.8"/>
		<rect x="151.1" y="95.3" fill="#E1E3E6" width="108.4" height="0.8"/>
		<rect x="151.1" y="107.3" fill="#E1E3E6" width="108.4" height="0.8"/>
		<rect x="151.1" y="119.3" fill="#E1E3E6" width="108.4" height="0.8"/>
		<rect x="151.1" y="131.3" fill="#E1E3E6" width="108.4" height="0.8"/>
		<rect x="151.1" y="143.2" fill="#E1E3E6" width="108.4" height="0.8"/>
		<rect x="151.1" y="155.2" fill="#E1E3E6" width="108.4" height="0.8"/>
		<rect x="151.1" y="167.2" fill="#E1E3E6" width="108.4" height="0.8"/>
	</g>
	<path fill="#FFB700" d="M283.6,131l-79.2,79.2c-0.2,0.2-0.5,0.2-0.6,0L124.5,131c-3.5-3.5-8.3-5.5-13.4-5.5l0,0v99.7
		c0,5.9,4.8,10.8,10.8,10.8h166.7c5.9,0,10.8-4.8,10.8-10.8v-99.7h-2.4C291.9,125.5,287.1,127.5,283.6,131z"/>
	<path fill="#E7E7E6" d="M232,182.6l-27.7,27.7c-0.2,0.2-0.5,0.2-0.6,0L176.4,183l-65.3,38.5l0,3.8c0,5.9,4.8,10.8,10.8,10.8h166.7
		c5.9,0,10.8-4.8,10.8-10.8v-3.4L232,182.6z"/>
	<path fill="#FFC400" d="M299.4,225.2v-3.2L217.9,177c-7.9-4.3-17.4-4.3-25.3,0l-81.5,45.1v3.2c0,5.9,4.8,10.8,10.8,10.8h166.7
		C294.5,236,299.4,231.2,299.4,225.2z"/>
	<g>
		<path fill="#FEFEFE" d="M258,223.3c0,2,0.3-1.3,6.5-1.3c4.7,0,0.4,12.2-7,12.6c0,0-1.6,0.5-1.3,2.5c0.3,2,13.5-2.7,13.5-13.6
			C269.7,216.3,258,217.7,258,223.3z"/>
		<path fill="#FEFEFE" d="M226.5,216c0,0,0.9,28.4,18.8,28.4c16.2,0,18-28.4,18-28.4H226.5z"/>
		<path fill="#EAF4FF" d="M232,219.2c-1.8-0.2-3.1-0.5-4-0.8c0.7,6.9,3.9,26.2,17.2,26.1c0.9,0,1.7-0.1,2.5-0.3
			C235.8,242,232.8,226.1,232,219.2z"/>
		<ellipse fill="#EAF4FF" cx="244.9" cy="216" rx="18.4" ry="2.9"/>
		<ellipse fill="#FEFEFE" cx="244.9" cy="216" rx="16.4" ry="2.3"/>
		<path fill="#606060" d="M232.1,217.5c3,0.5,7.6,0.8,12.7,0.8c5.1,0,9.7-0.3,12.7-0.8c-3-0.5-7.6-0.8-12.7-0.8
			C239.7,216.6,235.1,216.9,232.1,217.5z"/>
	</g>
	<g>
		<path fill="#D8171C" d="M132.3,93.6c-16.9,1.3-33.2,18.1-36.4,21.5c-3.3,3.3-19.2,20.5-19.7,37.4c-0.3,9.9,6.5,19.5,10.6,22.7
			l19-23.9c0,0-3.1-3.1-9.8-4.9c0,0,1.7-8.6,12-19.4c9.7-10.2,19.1-13.2,19.1-13.2c2.2,6.6,5.4,9.5,5.4,9.5l23-20.2
			C152,99.2,142.1,92.8,132.3,93.6z"/>
		<g>
			<path fill="#A60006" d="M105.6,151.1l-3.4-2.5c-2.2-1.7-8.3,2.2-13.5,8.9c-5.2,6.7-7.6,13.5-5.4,15.2l3.4,2.5L105.6,151.1z"/>
			
				<ellipse transform="matrix(0.7884 0.6152 -0.6152 0.7884 120.7187 -24.6344)" fill="#A60006" cx="96.2" cy="163.2" rx="5.1" ry="15.3"/>
			<g>
				<linearGradient id="SVGID_25_" gradientUnits="userSpaceOnUse" x1="85.422" y1="162.9042" x2="105.8803" y2="162.9042">
					<stop  offset="0" style="stop-color:#000000"/>
					<stop  offset="0.4893" style="stop-color:#C4171C"/>
					<stop  offset="1" style="stop-color:#000000"/>
				</linearGradient>
				<path fill="url(#SVGID_25_)" d="M86.8,175.2c0,0-0.1-0.1-0.3-0.3c-0.1-0.1-0.2-0.2-0.3-0.4c-0.1-0.2-0.2-0.4-0.3-0.6
					c-0.2-0.5-0.2-1-0.2-1.7c0-0.7,0.1-1.4,0.4-2.2c0.2-0.8,0.5-1.6,0.9-2.5c0.3-0.9,0.8-1.7,1.2-2.6c0.5-0.9,1-1.8,1.6-2.7
					c0.6-0.9,1.2-1.7,1.9-2.6c0.7-0.8,1.4-1.7,2.1-2.4c0.7-0.8,1.5-1.5,2.2-2.2c0.7-0.7,1.5-1.3,2.3-1.9c0.7-0.6,1.5-1,2.2-1.4
					c0.7-0.4,1.4-0.7,2-0.9c0.6-0.2,1.2-0.3,1.7-0.3c0.2,0,0.5,0,0.6,0.1c0.2,0.1,0.3,0.1,0.4,0.2c0.2,0.1,0.3,0.2,0.3,0.2
					s-0.1-0.1-0.3-0.2c-0.1-0.1-0.3-0.1-0.4-0.1c-0.2,0-0.4,0-0.6,0c-0.5,0-1,0.2-1.6,0.4c-0.6,0.3-1.2,0.6-1.9,1
					c-0.7,0.4-1.4,0.9-2,1.5c-0.7,0.6-1.4,1.2-2.1,1.9c-0.7,0.7-1.4,1.4-2.1,2.2c-0.7,0.8-1.4,1.6-2,2.4c-0.6,0.8-1.3,1.7-1.9,2.5
					c-0.6,0.9-1.1,1.7-1.6,2.6c-0.5,0.9-1,1.7-1.3,2.5c-0.4,0.8-0.7,1.6-1,2.3c-0.3,0.7-0.4,1.4-0.5,2.1c-0.1,0.6-0.1,1.2,0,1.6
					c0,0.2,0.1,0.4,0.2,0.6c0.1,0.2,0.1,0.3,0.2,0.4C86.7,175.1,86.8,175.2,86.8,175.2z"/>
			</g>
		</g>
		<g>
			<path fill="#A60006" d="M155.5,103.2l-2.9-3.1c-1.9-2.1-8.5,0.7-14.9,6.2c-6.3,5.6-10,11.8-8.1,14l2.9,3.1L155.5,103.2z"/>
			
				<ellipse transform="matrix(0.6599 0.7513 -0.7513 0.6599 134.0825 -69.707)" fill="#A60006" cx="144" cy="113.3" rx="5.1" ry="15.3"/>
			<g>
				<linearGradient id="SVGID_26_" gradientUnits="userSpaceOnUse" x1="131.5627" y1="112.8385" x2="155.9068" y2="112.8385">
					<stop  offset="0" style="stop-color:#000000"/>
					<stop  offset="0.4893" style="stop-color:#C4171C"/>
					<stop  offset="1" style="stop-color:#000000"/>
				</linearGradient>
				<path fill="url(#SVGID_26_)" d="M132.6,123.4c0,0-0.1-0.1-0.2-0.3c-0.1-0.1-0.1-0.2-0.2-0.4c-0.1-0.2-0.1-0.4-0.1-0.6
					c-0.1-0.5,0-1.1,0.2-1.7c0.2-0.6,0.4-1.4,0.8-2.1c0.4-0.7,0.8-1.5,1.3-2.3c0.5-0.8,1.1-1.6,1.7-2.4c0.6-0.8,1.3-1.6,2.1-2.3
					c0.7-0.8,1.5-1.5,2.3-2.2c0.8-0.7,1.6-1.4,2.5-2c0.8-0.6,1.7-1.2,2.6-1.8c0.9-0.5,1.7-1,2.6-1.4c0.8-0.4,1.7-0.7,2.4-1
					c0.8-0.3,1.5-0.4,2.2-0.5c0.7-0.1,1.3-0.1,1.7,0.1c0.2,0.1,0.4,0.1,0.6,0.2c0.2,0.1,0.3,0.2,0.4,0.3c0.2,0.2,0.3,0.3,0.3,0.3
					s-0.1-0.1-0.3-0.2c-0.1-0.1-0.2-0.1-0.4-0.2c-0.2-0.1-0.4-0.1-0.6-0.1c-0.4-0.1-1,0-1.6,0.1c-0.6,0.1-1.3,0.4-2,0.7
					c-0.7,0.3-1.5,0.7-2.3,1.1c-0.8,0.4-1.6,1-2.4,1.5c-0.8,0.5-1.6,1.2-2.5,1.8c-0.8,0.6-1.6,1.3-2.4,2c-0.8,0.7-1.6,1.4-2.3,2.1
					c-0.7,0.7-1.4,1.5-2.1,2.2c-0.6,0.8-1.3,1.5-1.8,2.2c-0.5,0.7-1,1.4-1.4,2.1c-0.4,0.7-0.7,1.3-0.9,1.9c-0.2,0.6-0.3,1.1-0.3,1.6
					c0,0.2,0,0.4,0.1,0.6c0,0.2,0.1,0.3,0.1,0.4C132.5,123.2,132.6,123.4,132.6,123.4z"/>
			</g>
		</g>
		<path fill="#FFA1A1" d="M78.5,144c0,0,11.3-31.4,43.1-46.3C121.6,97.7,96.3,109.3,78.5,144z"/>
		<path fill="#A60006" d="M126.8,112.8c0,0-9,1.1-22.2,13.1c-9.3,8.5-13.7,20.4-13.7,20.4c1.2-0.3,2.6-0.2,3.7-0.1
			C104.6,120.5,126.9,113.1,126.8,112.8C126.6,111.5,126.8,112.8,126.8,112.8z"/>
	</g>
	<g>
		<path fill="#547EFD" d="M112.5,70.8c0.1,0.7,0.3,1.3,0.5,1.8c0.2,0.4,0.3,0.8,0.5,1c0.2,0.2,0.4,0.3,0.6,0.3
			c0.2,0,0.5-0.1,0.7-0.2c0.4-0.2,0.8-0.7,1-1.2c0.2-0.6,0.3-1.3,0.2-2.1c-0.1-0.8-0.2-1.7-0.5-2.7c-0.3-1-0.7-2-1.2-3
			c-0.6-1.2-1.3-2.1-2.1-2.9c-0.8-0.7-1.7-1.3-2.6-1.6c-0.9-0.3-1.9-0.4-3-0.2c-1,0.1-2.1,0.5-3.2,1.1c-1.5,0.8-2.7,1.9-3.6,3.2
			c-0.9,1.3-1.5,2.8-1.9,4.4c-0.3,1.6-0.3,3.3,0,5.1c0.3,1.8,0.9,3.6,1.8,5.3c0.8,1.5,1.7,2.7,2.7,3.7c1,0.9,2.1,1.6,3.2,2
			c1.2,0.4,2.4,0.5,3.6,0.4c1.3-0.2,2.5-0.6,3.8-1.3c0.8-0.4,1.6-0.9,2.2-1.4c0.6-0.5,1.2-0.9,1.7-1.3c0.5-0.4,0.9-0.8,1.2-1.2
			c0.3-0.4,0.5-0.7,0.7-1c0.2-0.3,0.5-0.6,0.7-0.7c0.2-0.1,0.4-0.2,0.6-0.2c0.2,0,0.4,0,0.6,0.1c0.2,0.1,0.3,0.2,0.5,0.3l1.1,1.2
			c-0.4,0.7-0.8,1.4-1.3,2c-0.5,0.7-1.1,1.3-1.7,2c-0.6,0.7-1.4,1.3-2.2,1.9c-0.8,0.6-1.7,1.2-2.7,1.7c-1.8,1-3.6,1.5-5.4,1.7
			c-1.8,0.2-3.4,0-5-0.5c-1.6-0.5-3.1-1.4-4.4-2.6C98.2,84.6,97,83,96,81.2c-0.8-1.4-1.3-2.9-1.7-4.4c-0.4-1.5-0.5-3-0.5-4.5
			c0-1.5,0.2-3,0.5-4.4c0.4-1.4,0.9-2.8,1.6-4.1c0.7-1.3,1.6-2.4,2.6-3.5c1-1,2.2-1.9,3.5-2.6c1.4-0.8,2.9-1.2,4.4-1.4
			c1.5-0.2,3,0,4.4,0.4c1.4,0.4,2.7,1.1,3.9,2.1c1.2,1,2.2,2.3,3.1,3.9c0.8,1.4,1.3,2.9,1.5,4.4c0.3,1.5,0.3,2.9,0,4.2
			c-0.2,1.3-0.7,2.5-1.4,3.6c-0.7,1.1-1.6,1.9-2.7,2.5c-0.3,0.2-0.7,0.3-1,0.4c-0.3,0.1-0.7,0.1-1,0.1c-0.3,0-0.7-0.1-1-0.3
			c-0.3-0.2-0.7-0.4-1-0.7c-0.3,1.1-0.8,2.1-1.3,2.8c-0.6,0.7-1.2,1.3-2,1.7c-0.6,0.3-1.2,0.5-1.8,0.5c-0.6,0-1.1-0.1-1.6-0.3
			c-0.5-0.2-1-0.5-1.4-1c-0.4-0.4-0.8-1-1.1-1.6c-0.4-0.7-0.7-1.5-0.9-2.3c-0.2-0.8-0.3-1.7-0.3-2.6c0-0.9,0.1-1.8,0.3-2.7
			c0.2-0.9,0.6-1.8,1-2.6c0.5-0.8,1.1-1.6,1.9-2.4c0.8-0.7,1.7-1.4,2.8-2c0.5-0.3,0.9-0.5,1.3-0.6c0.4-0.2,0.8-0.3,1.1-0.4
			c0.4-0.1,0.7-0.2,1-0.2c0.3-0.1,0.7-0.1,1.1-0.1L112.5,70.8z M108,67.8c-0.3,0.1-0.5,0.2-0.8,0.3c-0.6,0.3-1,0.7-1.4,1.3
			c-0.4,0.6-0.6,1.3-0.8,2c-0.1,0.8-0.2,1.5-0.1,2.4c0.1,0.8,0.4,1.6,0.7,2.4c0.6,1.1,1.2,1.4,1.9,1c0.2-0.1,0.4-0.3,0.6-0.5
			c0.2-0.2,0.3-0.5,0.4-0.8c0.1-0.3,0.2-0.7,0.2-1.1c0-0.4,0-0.9-0.1-1.5L108,67.8z"/>
	</g>
	<circle fill="#FFB700" cx="163.5" cy="48.5" r="3.5"/>
	<circle fill="#FFB700" cx="87.5" cy="220.5" r="1.8"/>
	<circle fill="#C3F0CE" cx="348.5" cy="49.7" r="4.9"/>
	<circle fill="#3F69D0" cx="164.2" cy="234.9" r="23.1"/>
	<path fill="#F7FBFC" d="M167.8,225.4c2.9,0,5.2-2.3,5.2-5.2c0-2.9-2.3-5.2-5.2-5.2c-2.9,0-5.2,2.3-5.2,5.2
		C162.5,223,164.9,225.4,167.8,225.4z M165.8,249.9c-1.8-1.7,6.8-16,5.6-20.7c-0.8-3.4-14.5-1.2-14.6-0.2c0,0,3.9-0.5,4.6,1.3
		c0.7,1.8-4.6,12.8-5.6,17c-1,4.2,3.7,5.5,6.8,5.5c3.7,0,9.6-2.5,9.4-3.7C171.8,248,167.6,251.5,165.8,249.9z"/>
	<g>
		<path fill="#FFB700" d="M295.4,51.8v-0.5c0-3.7-3-6.7-6.7-6.7h-7.4c-3.7,0-6.7,3-6.7,6.7v0.5c0,3.7,3,6.7,6.7,6.7h7.4
			c0.1,0,0.2,0,0.3,0c0.9,1.5,2.8,3.2,6,3.4c0,0-2.5-1.2-3-4.3C294,56.5,295.4,54.3,295.4,51.8z"/>
		<circle fill="#FEFEFE" cx="280.9" cy="51.6" r="1.1"/>
		<circle fill="#FEFEFE" cx="285" cy="51.6" r="1.1"/>
		<circle fill="#FEFEFE" cx="289.2" cy="51.6" r="1.1"/>
	</g>
</g>
<g id="DESIGNED_BY_FREEPIK">
</g>
</svg>
